# xmcd
#
# Track frame offsets: 
#        150
#        15260
#        25370
#        39895
#        50022
#        60965
#        73185
#        84505
#        95892
#        107982
#        117682
#        130552
#
# Disc length: 1890 seconds
#
# Revision: 0
# Processed by: cddbd v1.4PL0 Copyright (c) Steve Scherf et al.
# Submitted via: ExactAudioCopy v0.90a11
#
DISCID=9e07600c
DTITLE=Tammy Wynette - Christmas With Tammy
DYEAR=1900
DGENRE=
TTITLE0=Silent Night, Holy Night
TTITLE1=O Little Town Of Bethlehem
TTITLE2=It Came Upon The Midnight Clear
TTITLE3=Joy To The World
TTITLE4=Away In A Manger
TTITLE5=Gentle Shepherd
TTITLE6=Blue Christmas
TTITLE7=(Merry Christmas) We Must Be Having One
TTITLE8=White Christmas
TTITLE9=One Happy Christmas
TTITLE10=Lonely Christmas Call
TTITLE11=Let's Put Christ Back Into Christmas
EXTD=
EXTT0=
EXTT1=
EXTT2=
EXTT3=
EXTT4=
EXTT5=
EXTT6=
EXTT7=
EXTT8=
EXTT9=
EXTT10=
EXTT11=
PLAYORDER=
